<?xml version="1.0" encoding="utf-8"?>
<!-- Generator: Adobe Illustrator 25.0.1, SVG Export Plug-In . SVG Version: 6.00 Build 0)  -->
<svg version="1.1" xmlns="http://www.w3.org/2000/svg" xmlns:xlink="http://www.w3.org/1999/xlink" x="0px" y="0px"
	 viewBox="0 0 2000 1400" style="enable-background:new 0 0 2000 1400;" xml:space="preserve">
<style type="text/css">
	.st0{display:none;}
	.st1{display:inline;}
	.st2{fill:#E1201F;}
	.st3{fill:#008BAC;}
	.st4{fill:#FAC700;}
	.st5{display:inline;opacity:0.3;}
	.st6{font-family:'MerriweatherSans-Regular';}
	.st7{font-size:26px;}
	.st8{display:inline;fill:none;stroke:#000000;stroke-width:24;stroke-miterlimit:10;}
	.st9{fill:url(#SVGID_1_);}
</style>
<g id="Calque_2" class="st0">
	<g class="st1">
		<path class="st2" d="M1008.8,139.4h-30c-11,0-20-9-20-20v-30c0-11,9-20,20-20h30c11,0,20,9,20,20v30
			C1028.8,130.4,1019.8,139.4,1008.8,139.4z"/>
		<path class="st3" d="M711.8,139.4h-30c-11,0-20-9-20-20v-30c0-11,9-20,20-20h30c11,0,20,9,20,20v30
			C731.8,130.4,722.8,139.4,711.8,139.4z"/>
		<path d="M810.8,139.4h-30c-11,0-20-9-20-20v-30c0-11,9-20,20-20h30c11,0,20,9,20,20v30C830.8,130.4,821.8,139.4,810.8,139.4z"/>
		<path class="st4" d="M909.8,139.4h-30c-11,0-20-9-20-20v-30c0-11,9-20,20-20h30c11,0,20,9,20,20v30
			C929.8,130.4,920.8,139.4,909.8,139.4z"/>
	</g>
	<text transform="matrix(1 0 0 1 1076.6565 115.6151)" class="st5 st6 st7">BOSA brand colors </text>
	<circle class="st8" cx="989.3" cy="1134.3" r="68.8"/>
	<circle class="st8" cx="938.4" cy="988.8" r="32.9"/>
	<circle class="st8" cx="826.9" cy="1154.5" r="32.9"/>
	<circle class="st8" cx="1007.8" cy="1283.8" r="32.9"/>
	<circle class="st8" cx="1120.4" cy="1066.2" r="32.9"/>
	<line class="st8" x1="859.6" y1="1150.4" x2="921" y2="1142.8"/>
	<line class="st8" x1="1049.2" y1="1100.4" x2="1090.8" y2="1080.5"/>
	<line class="st8" x1="966.6" y1="1069.3" x2="949.9" y2="1021.8"/>
	<line class="st8" x1="997.8" y1="1202.6" x2="1003.8" y2="1251.1"/>
</g>
<g id="Calque_3">
	<circle cx="517" cy="701.5" r="65.1"/>
	<path class="st4" d="M479.8,715.1c0,21.3,10.2,40.2,26,52c1.5,0.1,2.9,0.2,4.4,0.2c36.2,0,65.5-29.3,65.5-65.5
		c0-21-9.9-39.7-25.3-51.6c-1.8-0.1-3.6-0.2-5.5-0.2C508.9,650,479.8,679.1,479.8,715.1z"/>
	<path class="st2" d="M550.8,650.5c-23.2,5.7-40.5,26.7-40.5,51.7c0,24.8,16.9,45.6,39.8,51.5c15.5-12,25.6-30.8,25.6-51.9
		C575.6,681,565.9,662.5,550.8,650.5z"/>
</g>
<g id="Calque_1">
	<g>
		<path d="M901.7,753.8c0,9.6-2,18-6,25.1c-4,7.1-9.4,13-16.3,17.8c-6.9,4.7-15,8.3-24.2,10.7c-9.2,2.4-19,3.6-29.2,3.6H717.3v-223
			h124.1c7.7,0,14.8,1.7,21,5c6.3,3.4,11.6,7.7,16,13c4.4,5.3,7.8,11.4,10.2,18.2c2.4,6.8,3.6,13.8,3.6,20.9c0,10.7-2.7,20.7-8,30.2
			c-5.3,9.4-13.4,16.5-24,21.4c12.8,3.8,22.9,10.5,30.3,20.1C898,726.4,901.7,738.7,901.7,753.8z M768.8,631.9v46.2h50.6
			c5.7,0,10.7-1.9,15.1-5.7c4.4-3.8,6.6-9.6,6.6-17.6c0-7.3-1.9-13-5.8-17c-3.9-4-8.5-6-14-6H768.8z M849.2,743.4
			c0-6.9-2-12.8-6-17.6c-4-4.8-9-7.2-15.1-7.2h-59.4v48.7H826c6.7,0,12.3-2.2,16.7-6.6C847,756.3,849.2,750.6,849.2,743.4z"/>
		<path d="M1073.2,765.7V811H916.4v-223h153.9v45.2H968v43.4h88v41.8h-88v47.4H1073.2z"/>
		<path d="M1088.9,811v-223h51.5v177.8h108.1V811H1088.9z"/>
		<path d="M1396.1,789c-17,15.7-36.5,23.6-58.7,23.6c-14.7,0-28.5-2.8-41.5-8.3c-13-5.5-24.3-13.4-34.1-23.4
			c-9.7-10.1-17.4-22.1-23.1-36.3c-5.7-14.1-8.5-29.7-8.5-46.7c0-15.3,2.8-29.7,8.5-43.4c5.7-13.6,13.5-25.4,23.4-35.5
			c9.9-10.1,21.7-18,35.3-23.9c13.6-5.9,28.3-8.8,44-8.8c20.7,0,38.8,4.3,54.3,13c15.5,8.7,27.1,20.6,34.9,35.7l-38.3,28.9
			c-5-10.1-12.3-17.9-21.8-23.4c-9.5-5.5-19.8-8.3-30.9-8.3c-8.6,0-16.4,1.7-23.4,5.2c-7,3.5-13,8.3-18.1,14.5
			c-5,6.2-8.9,13.4-11.6,21.5c-2.7,8.2-4.1,17-4.1,26.4c0,9.6,1.5,18.5,4.4,26.7c2.9,8.2,7,15.2,12.3,21.2c5.2,6,11.5,10.6,18.7,14
			c7.2,3.4,15.2,5,24,5c20.1,0,38.2-9.3,54.3-28v-6.9h-43.4v-37.4h86.1V811h-42.7V789z"/>
		<path d="M1457.1,811v-223h51.5v223H1457.1z"/>
		<path d="M1535.6,811v-223H1687v45.2h-99.9v48.1h82.3V723h-82.3v88H1535.6z"/>
	</g>
	<g>
		<path d="M739.6,862.5c0,1.1-0.2,2.1-0.7,2.9c-0.4,0.9-1,1.6-1.8,2.2c-0.7,0.6-1.6,1.1-2.6,1.4s-2.1,0.5-3.2,0.5h-12.9v-27h13.9
			c0.9,0,1.8,0.2,2.5,0.6c0.8,0.4,1.4,0.9,1.9,1.6c0.5,0.6,0.9,1.4,1.2,2.2c0.3,0.8,0.4,1.7,0.4,2.5c0,1.3-0.3,2.6-1,3.7
			c-0.7,1.2-1.6,2-2.9,2.6c1.5,0.5,2.8,1.3,3.7,2.5C739.1,859.3,739.6,860.8,739.6,862.5z M722.6,846.2v7.9h7.8c0.5,0,1-0.1,1.5-0.3
			c0.4-0.2,0.8-0.5,1.2-0.8c0.3-0.3,0.6-0.8,0.8-1.2c0.2-0.5,0.3-1,0.3-1.6c0-1.2-0.3-2.1-1-2.9s-1.5-1.1-2.5-1.1H722.6z
			 M735.2,861.7c0-0.6-0.1-1.1-0.3-1.6s-0.4-1-0.8-1.3c-0.3-0.4-0.7-0.7-1.2-0.9c-0.5-0.2-0.9-0.3-1.5-0.3h-8.9v8.2h8.6
			c0.6,0,1.1-0.1,1.6-0.3c0.5-0.2,0.9-0.5,1.3-0.9c0.4-0.4,0.6-0.8,0.8-1.3C735.1,862.8,735.2,862.3,735.2,861.7z"/>
		<path d="M765.4,865.7v3.8h-18.5v-27H765v3.8h-13.9v7.7h12v3.5h-12v8.2H765.4z"/>
		<path d="M772.6,869.5v-27h4.3v23.2h14.5v3.8H772.6z"/>
		<path d="M814.9,866.1c-2.3,2.4-4.9,3.5-7.9,3.5c-1.8,0-3.5-0.4-5-1.1c-1.5-0.7-2.9-1.8-4-3c-1.1-1.3-2-2.7-2.7-4.4s-1-3.4-1-5.2
			c0-1.8,0.3-3.6,1-5.2s1.5-3.1,2.7-4.3c1.1-1.2,2.5-2.2,4.1-2.9c1.6-0.7,3.3-1.1,5.1-1.1c2.6,0,4.8,0.5,6.5,1.6s3.1,2.5,4,4.3
			l-3.3,2.4c-0.7-1.5-1.7-2.6-3-3.3c-1.3-0.7-2.7-1.1-4.3-1.1c-1.3,0-2.4,0.3-3.5,0.8c-1,0.5-1.9,1.3-2.7,2.2
			c-0.7,0.9-1.3,1.9-1.7,3.1c-0.4,1.2-0.6,2.4-0.6,3.7c0,1.4,0.2,2.6,0.7,3.8c0.4,1.2,1.1,2.2,1.8,3.1c0.8,0.9,1.7,1.6,2.8,2.1
			s2.2,0.8,3.5,0.8c1.4,0,2.7-0.3,3.9-0.9s2.5-1.6,3.6-3V859h-5.7v-3.2h9.2v13.6h-3.6V866.1z"/>
		<path d="M826.1,869.5v-27h4.3v27H826.1z"/>
		<path d="M847.3,842.5h3.7l10.6,27h-4.5l-2.8-7.3h-10.4l-2.8,7.3h-4.5L847.3,842.5z M853.5,859l-4.3-11.6l-4.5,11.6H853.5z"/>
		<path d="M872.1,850.5v19h-4.3v-27h3.3l15.4,19.5v-19.4h4.3v26.9h-3.5L872.1,850.5z"/>
		<path d="M912.1,869.5v-27h4.3v27H912.1z"/>
		<path d="M929.5,850.5v19h-4.3v-27h3.3L944,862v-19.4h4.3v26.9h-3.5L929.5,850.5z"/>
		<path d="M977,846.3h-9v23.2h-4.3v-23.2h-9v-3.8H977V846.3z"/>
		<path d="M1002,865.7v3.8h-18.5v-27h18.2v3.8h-13.9v7.7h12v3.5h-12v8.2H1002z"/>
		<path d="M1009.3,869.5v-27h11.7c1.2,0,2.3,0.3,3.4,0.8c1,0.5,1.9,1.2,2.6,2c0.7,0.8,1.3,1.8,1.7,2.8c0.4,1.1,0.6,2.1,0.6,3.2
			c0,0.9-0.1,1.8-0.4,2.6s-0.6,1.6-1.1,2.3s-1,1.3-1.7,1.8c-0.7,0.5-1.4,0.9-2.2,1.2l6.3,10.3h-4.8l-5.9-9.4h-6.2v9.4H1009.3z
			 M1013.5,856.3h7.4c0.6,0,1.2-0.1,1.7-0.4c0.5-0.3,0.9-0.6,1.3-1.1c0.4-0.5,0.6-1,0.8-1.6c0.2-0.6,0.3-1.3,0.3-1.9
			c0-0.7-0.1-1.3-0.4-1.9c-0.2-0.6-0.6-1.1-1-1.6c-0.4-0.5-0.8-0.8-1.4-1.1c-0.5-0.3-1.1-0.4-1.6-0.4h-7.2V856.3z"/>
		<path d="M1048.4,869.7c-1.9,0-3.7-0.4-5.3-1.2c-1.6-0.8-2.9-1.8-4.1-3.1c-1.1-1.3-2-2.7-2.6-4.4s-0.9-3.3-0.9-5.1
			c0-1.8,0.3-3.5,1-5.2c0.7-1.6,1.6-3.1,2.7-4.4c1.2-1.3,2.5-2.3,4.1-3s3.3-1.1,5.2-1.1c1.9,0,3.7,0.4,5.3,1.2
			c1.6,0.8,2.9,1.8,4.1,3.1c1.1,1.3,2,2.8,2.6,4.4c0.6,1.6,0.9,3.3,0.9,5c0,1.8-0.3,3.5-1,5.2c-0.6,1.6-1.6,3.1-2.7,4.4
			c-1.2,1.3-2.5,2.3-4.1,3C1052,869.3,1050.3,869.7,1048.4,869.7z M1039.9,856c0,1.3,0.2,2.5,0.6,3.7s1,2.2,1.7,3.2
			c0.7,0.9,1.7,1.6,2.7,2.2c1.1,0.5,2.3,0.8,3.6,0.8c1.4,0,2.6-0.3,3.6-0.9c1.1-0.6,1.9-1.3,2.7-2.3s1.3-2,1.7-3.2
			c0.4-1.2,0.6-2.4,0.6-3.6c0-1.3-0.2-2.5-0.6-3.7c-0.4-1.2-1-2.2-1.7-3.1s-1.6-1.6-2.7-2.2s-2.2-0.8-3.5-0.8
			c-1.4,0-2.6,0.3-3.6,0.9c-1.1,0.6-2,1.3-2.7,2.2c-0.7,0.9-1.3,2-1.7,3.1S1039.9,854.8,1039.9,856z"/>
		<path d="M1068.7,869.5v-27h11.3c1.2,0,2.3,0.3,3.4,0.8c1,0.5,1.9,1.2,2.6,2c0.7,0.8,1.3,1.8,1.7,2.8c0.4,1.1,0.6,2.1,0.6,3.2
			c0,1.1-0.2,2.2-0.6,3.3c-0.4,1.1-0.9,2-1.7,2.8c-0.7,0.8-1.6,1.5-2.6,2c-1,0.5-2.1,0.7-3.3,0.7h-7.3v9.4H1068.7z M1072.9,856.3h7
			c0.6,0,1.2-0.1,1.7-0.4c0.5-0.3,0.9-0.6,1.3-1.1c0.4-0.5,0.6-1,0.8-1.6c0.2-0.6,0.3-1.3,0.3-2c0-0.8-0.1-1.4-0.3-2.1
			c-0.2-0.6-0.5-1.1-1-1.6s-0.9-0.8-1.4-1c-0.5-0.2-1.1-0.4-1.6-0.4h-6.8V856.3z"/>
		<path d="M1113.7,865.7v3.8h-18.5v-27h18.2v3.8h-13.9v7.7h12v3.5h-12v8.2H1113.7z"/>
		<path d="M1120.9,869.5v-27h11.7c1.2,0,2.3,0.3,3.4,0.8c1,0.5,1.9,1.2,2.6,2c0.7,0.8,1.3,1.8,1.7,2.8c0.4,1.1,0.6,2.1,0.6,3.2
			c0,0.9-0.1,1.8-0.4,2.6s-0.6,1.6-1.1,2.3s-1,1.3-1.7,1.8c-0.7,0.5-1.4,0.9-2.2,1.2l6.3,10.3h-4.8l-5.9-9.4h-6.2v9.4H1120.9z
			 M1125.2,856.3h7.4c0.6,0,1.2-0.1,1.7-0.4c0.5-0.3,0.9-0.6,1.3-1.1c0.4-0.5,0.6-1,0.8-1.6c0.2-0.6,0.3-1.3,0.3-1.9
			c0-0.7-0.1-1.3-0.4-1.9c-0.2-0.6-0.6-1.1-1-1.6c-0.4-0.5-0.8-0.8-1.4-1.1c-0.5-0.3-1.1-0.4-1.6-0.4h-7.2V856.3z"/>
		<path d="M1156.4,842.5h3.7l10.6,27h-4.5l-2.9-7.3h-10.4l-2.8,7.3h-4.5L1156.4,842.5z M1162.6,859l-4.3-11.6l-4.5,11.6H1162.6z"/>
		<path d="M1198.2,862.5c0,1.1-0.2,2.1-0.7,2.9c-0.4,0.9-1,1.6-1.8,2.2c-0.7,0.6-1.6,1.1-2.6,1.4c-1,0.3-2.1,0.5-3.2,0.5H1177v-27
			h13.9c0.9,0,1.8,0.2,2.5,0.6s1.4,0.9,1.9,1.6c0.5,0.6,0.9,1.4,1.2,2.2c0.3,0.8,0.4,1.7,0.4,2.5c0,1.3-0.3,2.6-1,3.7
			c-0.7,1.2-1.6,2-2.9,2.6c1.5,0.5,2.8,1.3,3.7,2.5S1198.2,860.8,1198.2,862.5z M1181.3,846.2v7.9h7.8c0.5,0,1-0.1,1.5-0.3
			c0.4-0.2,0.8-0.5,1.2-0.8c0.3-0.3,0.6-0.8,0.8-1.2c0.2-0.5,0.3-1,0.3-1.6c0-1.2-0.3-2.1-1-2.9c-0.7-0.7-1.5-1.1-2.5-1.1H1181.3z
			 M1193.8,861.7c0-0.6-0.1-1.1-0.3-1.6c-0.2-0.5-0.4-1-0.8-1.3c-0.3-0.4-0.7-0.7-1.2-0.9c-0.5-0.2-1-0.3-1.5-0.3h-8.9v8.2h8.6
			c0.6,0,1.1-0.1,1.6-0.3c0.5-0.2,0.9-0.5,1.3-0.9c0.4-0.4,0.6-0.8,0.8-1.3C1193.7,862.8,1193.8,862.3,1193.8,861.7z"/>
		<path d="M1205.5,869.5v-27h4.3v27H1205.5z"/>
		<path d="M1218.7,869.5v-27h4.3v23.2h14.5v3.8H1218.7z"/>
		<path d="M1243.7,869.5v-27h4.3v27H1243.7z"/>
		<path d="M1276.7,846.3h-9v23.2h-4.3v-23.2h-9v-3.8h22.3V846.3z"/>
		<path d="M1285.1,842.5l7.4,13.5l7.5-13.5h4.7l-10.1,17.3v9.7h-4.3v-9.7l-10-17.3H1285.1z"/>
		<path d="M1321.9,869.5v-27h18v3.8h-13.7v8.1h11.5v3.5h-11.5v11.6H1321.9z"/>
		<path d="M1346.8,869.5v-27h11.7c1.2,0,2.3,0.3,3.4,0.8c1,0.5,1.9,1.2,2.6,2c0.7,0.8,1.3,1.8,1.7,2.8c0.4,1.1,0.6,2.1,0.6,3.2
			c0,0.9-0.1,1.8-0.4,2.6s-0.6,1.6-1.1,2.3s-1,1.3-1.7,1.8c-0.7,0.5-1.4,0.9-2.2,1.2l6.3,10.3h-4.8l-5.9-9.4h-6.2v9.4H1346.8z
			 M1351,856.3h7.4c0.6,0,1.2-0.1,1.7-0.4c0.5-0.3,0.9-0.6,1.3-1.1c0.4-0.5,0.6-1,0.8-1.6c0.2-0.6,0.3-1.3,0.3-1.9
			c0-0.7-0.1-1.3-0.4-1.9c-0.2-0.6-0.6-1.1-1-1.6c-0.4-0.5-0.8-0.8-1.4-1.1c-0.5-0.3-1.1-0.4-1.6-0.4h-7.2V856.3z"/>
		<path d="M1382.3,842.5h3.7l10.6,27h-4.5l-2.9-7.3h-10.4l-2.8,7.3h-4.5L1382.3,842.5z M1388.5,859l-4.3-11.6l-4.5,11.6H1388.5z"/>
		<path d="M1425.5,869.5v-19.4l-8,14.7h-2.4l-8.1-14.7v19.4h-4.3v-27h4.6l8.9,16.5l8.9-16.5h4.6v27H1425.5z"/>
		<path d="M1457.2,865.7v3.8h-18.5v-27h18.2v3.8H1443v7.7h12v3.5h-12v8.2H1457.2z"/>
		<path d="M1474.1,842.6h4l3.3,9.2l3.3-9.2h4l-4.6,12l4,9.9l8.4-22h4.7l-11.1,27h-3.6l-5-12.1l-5.1,12.1h-3.6l-11.1-27h4.6l8.4,22
			l4-9.9L1474.1,842.6z"/>
		<path d="M1517.5,869.7c-1.9,0-3.7-0.4-5.3-1.2c-1.6-0.8-2.9-1.8-4.1-3.1c-1.1-1.3-2-2.7-2.6-4.4s-0.9-3.3-0.9-5.1
			c0-1.8,0.3-3.5,1-5.2c0.7-1.6,1.6-3.1,2.7-4.4c1.2-1.3,2.5-2.3,4.1-3s3.3-1.1,5.2-1.1c1.9,0,3.7,0.4,5.3,1.2
			c1.6,0.8,2.9,1.8,4.1,3.1c1.1,1.3,2,2.8,2.6,4.4c0.6,1.6,0.9,3.3,0.9,5c0,1.8-0.3,3.5-1,5.2c-0.6,1.6-1.6,3.1-2.7,4.4
			c-1.2,1.3-2.5,2.3-4.1,3C1521.1,869.3,1519.4,869.7,1517.5,869.7z M1508.9,856c0,1.3,0.2,2.5,0.6,3.7s1,2.2,1.7,3.2
			c0.7,0.9,1.7,1.6,2.7,2.2c1.1,0.5,2.3,0.8,3.6,0.8c1.4,0,2.6-0.3,3.6-0.9c1.1-0.6,1.9-1.3,2.7-2.3s1.3-2,1.7-3.2
			c0.4-1.2,0.6-2.4,0.6-3.6c0-1.3-0.2-2.5-0.6-3.7c-0.4-1.2-1-2.2-1.7-3.1s-1.6-1.6-2.7-2.2s-2.2-0.8-3.5-0.8
			c-1.4,0-2.6,0.3-3.6,0.9c-1.1,0.6-2,1.3-2.7,2.2c-0.7,0.9-1.3,2-1.7,3.1S1508.9,854.8,1508.9,856z"/>
		<path d="M1537.7,869.5v-27h11.7c1.2,0,2.3,0.3,3.4,0.8c1,0.5,1.9,1.2,2.6,2c0.7,0.8,1.3,1.8,1.7,2.8c0.4,1.1,0.6,2.1,0.6,3.2
			c0,0.9-0.1,1.8-0.4,2.6s-0.6,1.6-1.1,2.3s-1,1.3-1.7,1.8c-0.7,0.5-1.4,0.9-2.2,1.2l6.3,10.3h-4.8l-5.9-9.4h-6.2v9.4H1537.7z
			 M1542,856.3h7.4c0.6,0,1.2-0.1,1.7-0.4c0.5-0.3,0.9-0.6,1.3-1.1c0.4-0.5,0.6-1,0.8-1.6c0.2-0.6,0.3-1.3,0.3-1.9
			c0-0.7-0.1-1.3-0.4-1.9c-0.2-0.6-0.6-1.1-1-1.6c-0.4-0.5-0.8-0.8-1.4-1.1c-0.5-0.3-1.1-0.4-1.6-0.4h-7.2V856.3z"/>
		<path d="M1565.7,869.5v-26.9h4.3v13.9l12.7-13.9h4.7l-10.6,11.9l11.2,15h-4.8l-9.1-12.4l-4.1,4.3v8.1H1565.7z"/>
	</g>
	<linearGradient id="SVGID_1_" gradientUnits="userSpaceOnUse" x1="738.6788" y1="583.8349" x2="387.3499" y2="753.1116">
		<stop  offset="0" style="stop-color:#008BAC"/>
		<stop  offset="1" style="stop-color:#20B1C0"/>
	</linearGradient>
	<path class="st9" d="M688.6,627.9l-14.5-31.5c-0.5-1-1.5-1.5-2.3-1.1l-15.2,7l-3.6-7.9c-0.7-1.5-2.2-2.2-3.4-1.6l-64.4,29.6
		c-1.2,0.5-1.6,2.2-0.9,3.6l7.3,15.9l-18.7,9c-4.1-5.4-9-10.3-14.5-14.6c-17-13.3-38.2-19.1-59.6-16.4c-1.7,0.2-3.4,0.5-5.1,0.8
		l-6.9-19.8l14.4-4.9c1.5-0.5,2.4-1.9,2-3.2l-22.8-67.1c-0.4-1.2-2-1.8-3.5-1.3l-8.3,2.8l-5.4-15.8c-0.3-0.8-1.4-1.2-2.4-0.9
		l-32.8,11.2c-1,0.3-1.6,1.3-1.3,2.2l5.4,15.8l-8.3,2.8c-1.5,0.5-2.4,1.9-2,3.2l22.8,67.1c0.4,1.2,2,1.8,3.5,1.3l15.9-5.4l7,19.9
		c-10,5.3-18.9,12.7-26.1,21.9c-10.8,13.8-16.7,30.4-17.1,47.6l-49.4,4.7l-1.2-15.1c-0.1-1.6-1.3-2.8-2.6-2.7l-70.7,5.7
		c-1.3,0.1-2.3,1.5-2.1,3.1l0.7,8.7l-16.6,1.3c-0.9,0.1-1.5,1-1.4,2.1l2.8,34.5c0.1,1.1,0.9,1.9,1.8,1.8l16.6-1.3l0.7,8.7
		c0.1,1.6,1.3,2.8,2.6,2.7l70.7-5.7c1.3-0.1,2.3-1.5,2.1-3.1l-1.4-16.8l50.4-4.8c4.6,16.6,14.4,31.2,28.2,42
		c13.8,10.8,30.4,16.6,47.6,17l2,16.3l-16.1,1.9c-1.6,0.2-2.8,1.4-2.6,2.7l8.5,70.4c0.2,1.3,1.6,2.2,3.2,2l8.7-1l2,16.6
		c0.1,0.9,1.1,1.5,2.1,1.4l34.4-4.1c1.1-0.1,1.9-1,1.8-1.8l-2-16.6l8.7-1c1.6-0.2,2.8-1.4,2.6-2.7l-8.5-70.4c-0.2-1.3-1.6-2.2-3.2-2
		l-15.7,1.9l-2-16.4c16.6-4.6,31.2-14.4,42-28.2c13.3-17,19.1-38.2,16.4-59.6c-0.8-6.3-2.3-12.4-4.4-18.2l17.1-8.2l6,13.1
		c0.7,1.5,2.2,2.2,3.4,1.6l64.4-29.6c1.2-0.5,1.6-2.2,0.9-3.6l-3.6-7.9l15.2-7C688.7,630,689,628.9,688.6,627.9z M553.6,735
		c-9.3,12-22.8,19.6-37.8,21.5c-15.1,1.9-30-2.2-41.9-11.6c-12-9.3-19.6-22.8-21.5-37.8c-1.9-15.1,2.2-30,11.6-41.9
		c9.3-12,22.8-19.6,37.8-21.5c2.4-0.3,4.8-0.4,7.1-0.4c12.6,0,24.7,4.2,34.8,12c12,9.3,19.6,22.8,21.5,37.8
		C567,708.2,562.9,723,553.6,735z"/>
</g>
</svg>
